#!OML:ASF F:\VICON\USERDATA\INSTALL\rory3\rory3.ASF
:FULLY-SPECIFIED
:DEGREES
1
root 0.905153 15.8417 -43.9351 24.0181 4.52189 -0.103027
lowerback -1.98829 -2.94849 -0.217126
upperback -2.5043 -3.91847 2.18309
thorax -1.28815 -1.94265 2.32273
lowerneck -13.0086 -2.77824 -7.7336
upperneck 4.38443 -2.97108 6.85231
head 3.62975 -1.26801 3.14987
rclavicle -4.31114e-014 6.36111e-015
rhumerus -45.0057 1.21933 -83.7478
rradius 40.3321
rwrist 2.06785
rhand -26.4685 -49.4952
rfingers 7.12502
rthumb 0.0932205 -79.475
lclavicle -4.31114e-014 6.36111e-015
lhumerus -25.2003 -23.2611 95.8037
lradius 49.5599
lwrist 9.42003
lhand -33.5163 -28.9139
lfingers 7.12502
lthumb -6.7126 0.959672
rfemur -73.3989 -2.83918 23.6955
rtibia 76.489
rfoot -13.8706 -9.71844
rtoes -13.1855
lfemur -20.8137 -3.07956 -25.3185
ltibia 41.8342
lfoot -38.2185 20.9802
ltoes -8.28037
2
root 0.884869 15.8169 -43.8147 24.1068 4.50321 0.0583517
lowerback -2.18158 -2.94465 -0.471264
upperback -2.50922 -3.91332 2.05082
thorax -1.1776 -1.93816 2.31763
lowerneck -12.0675 -2.67765 -7.5145
upperneck 3.63044 -2.91315 6.91976
head 3.24453 -1.24869 3.14554
rclavicle 4.0403e-014 -1.68967e-015
rhumerus -45.1514 0.815485 -83.7945
rradius 40.6316
rwrist 2.08319
rhand -28.0027 -47.2021
rfingers 7.12502
rthumb -1.38856 -77.1773
lclavicle 4.0403e-014 -1.68967e-015
lhumerus -25.226 -23.935 95.5897
lradius 50.5751
lwrist 10.4565
lhand -32.9795 -30.4428
lfingers 7.12502
lthumb -6.19438 -0.553403
rfemur -73.3565 -2.74667 23.6838
rtibia 77.0388
rfoot -14.5024 -8.88984
rtoes -13.9282
lfemur -20.4042 -2.76732 -25.3114
ltibia 41.7411
lfoot -38.0884 20.4249
ltoes -9.38993
3
root 0.872932 15.8017 -43.6766 24.1514 4.58402 0.0143327
lowerback -1.96435 -3.07896 -0.365429
upperback -2.59537 -4.09098 2.13886
thorax -1.38099 -2.02621 2.36261
lowerneck -12.2656 -2.56336 -7.69378
upperneck 3.66136 -2.72314 6.96564
head 3.27479 -1.15176 3.20062
rclavicle -3.64273e-014 6.85807e-015
rhumerus -45.2781 1.12909 -83.8572
rradius 41.1142
rwrist 2.19388
rhand -28.6135 -46.2781
rfingers 7.12502
rthumb -1.97845 -76.2486
lclavicle -3.64273e-014 6.85807e-015
lhumerus -25.2282 -23.9325 95.4483
lradius 51.5342
lwrist 11.3024
lhand -32.8467 -31.953
lfingers 7.12502
lthumb -6.06624 -2.05983
rfemur -73.1287 -2.76508 23.9281
rtibia 77.5777
rfoot -15.2624 -7.88374
rtoes -13.1691
lfemur -19.8301 -2.56141 -25.0744
ltibia 41.6454
lfoot -37.8943 20.0825
ltoes -11.0845
4
root 0.857651 15.7922 -43.5322 24.3111 4.83299 -0.158194
lowerback -1.51826 -3.34151 0.0316547
upperback -2.98471 -4.43262 2.29786
thorax -2.03429 -2.19682 2.34741
lowerneck -12.3891 -2.39731 -8.01777
upperneck 4.03617 -2.45972 7.02399
head 3.39328 -1.02216 3.28905
rclavicle -3.07744e-014 1.26228e-014
rhumerus -45.9067 1.87459 -84.0538
rradius 41.7673
rwrist 2.19968
rhand -28.3517 -46.4755
rfingers 7.12502
rthumb -1.7256 -76.4482
lclavicle -3.07744e-014 1.26228e-014
lhumerus -25.7797 -23.4766 95.3907
lradius 52.6322
lwrist 12.0178
lhand -32.748 -32.9242
lfingers 7.12502
lthumb -5.97089 -3.02832
rfemur -72.9074 -2.81083 24.3783
rtibia 78.0999
rfoot -15.8846 -6.85816
rtoes -11.8372
lfemur -19.4449 -2.21226 -24.5965
ltibia 41.6132
lfoot -37.4177 19.654
ltoes -13.9053
5
root 0.838291 15.7824 -43.3838 24.5184 5.11767 -0.0743836
lowerback -1.14057 -3.31805 0.118462
upperback -3.00338 -4.39754 2.21098
thorax -2.27981 -2.17989 2.23632
lowerneck -13.9777 -2.62865 -7.67355
upperneck 4.81111 -2.72855 6.85097
head 3.89597 -1.13045 3.15327
rclavicle -1.47598e-014 -2.43511e-015
rhumerus -45.815 1.41949 -84.0433
rradius 42.2615
rwrist 2.1633
rhand -27.6163 -47.6757
rfingers 7.12502
rthumb -1.01533 -77.6531
lclavicle -1.47598e-014 -2.43511e-015
lhumerus -25.5484 -24.2666 95.1575
lradius 53.6885
lwrist 12.8702
lhand -32.6626 -33.8355
lfingers 7.12502
lthumb -5.88843 -3.93737
rfemur -72.6771 -2.9503 24.5932
rtibia 78.6819
rfoot -16.3361 -5.99693
rtoes -10.4322
lfemur -19.1712 -1.88199 -24.3332
ltibia 41.7076
lfoot -36.9414 19.0168
ltoes -15.4084
6
root 0.822731 15.7667 -43.2222 24.3791 5.31246 -0.164856
lowerback -1.50053 -3.50091 0.323992
upperback -2.70361 -4.65002 2.28727
thorax -1.77024 -2.31386 2.16285
lowerneck -13.9477 -2.5143 -7.92749
upperneck 4.4959 -2.53119 6.98129
head 3.78544 -1.03122 3.25022
rclavicle 3.23025e-016 1.8313e-014
rhumerus -45.5229 1.8019 -84.218
rradius 42.7042
rwrist 2.05949
rhand -28.7388 -46.4367
rfingers 7.12502
rthumb -2.09941 -76.4061
lclavicle 3.23025e-016 1.8313e-014
lhumerus -25.3788 -24.0739 94.7132
lradius 54.8744
lwrist 13.1524
lhand -32.693 -34.0766
lfingers 7.12502
lthumb -5.91785 -4.17926
rfemur -71.8758 -2.95345 25.0218
rtibia 79.1107
rfoot -16.3736 -6.01303
rtoes -11.6725
lfemur -18.5434 -1.53 -23.925
ltibia 41.9783
lfoot -36.6169 18.2305
ltoes -17.8777
7
root 0.806973 15.7463 -43.0875 24.5229 5.07675 -0.369694
lowerback -1.24941 -3.36603 0.489934
upperback -3.52483 -4.45314 2.24058
thorax -2.78108 -2.21215 2.07761
lowerneck -11.0097 -2.2314 -7.86106
upperneck 3.61103 -2.33675 6.90395
head 3.0308 -0.987455 3.24015
rclavicle 2.59538e-014 -1.42876e-014
rhumerus -47.1855 1.68238 -84.253
rradius 43.3852
rwrist 2.01629
rhand -28.5176 -46.9539
rfingers 7.12502
rthumb -1.88582 -76.9254
lclavicle 2.59538e-014 -1.42876e-014
lhumerus -27.3456 -23.936 95.1317
lradius 56.3761
lwrist 12.3081
lhand -33.1201 -33.7082
lfingers 7.12502
lthumb -6.33013 -3.82282
rfemur -71.5343 -2.55576 25.3894
rtibia 79.5719
rfoot -16.0624 -5.87383
rtoes -12.8934
lfemur -18.4453 -1.15435 -23.5938
ltibia 42.4209
lfoot -36.2811 17.1717
ltoes -18.5653
8
root 0.778463 15.7293 -42.9437 24.6391 5.14454 -0.409989
lowerback -1.16253 -3.41031 0.523772
upperback -3.20996 -4.51454 2.30527
thorax -2.50017 -2.24489 2.11711
lowerneck -12.8101 -2.29599 -7.90013
upperneck 4.12485 -2.29863 6.80803
head 3.47052 -0.943611 3.21246
rclavicle -5.45105e-014 1.14301e-014
rhumerus -46.1641 1.61248 -84.2915
rradius 43.7035
rwrist 1.821
rhand -27.3855 -48.5927
rfingers 7.12502
rthumb -0.792461 -78.5709
lclavicle -5.45105e-014 1.14301e-014
lhumerus -26.6493 -24.0332 94.5915
lradius 57.2682
lwrist 13.3064
lhand -33.1395 -34.2602
lfingers 7.12502
lthumb -6.34889 -4.37539
rfemur -71.0032 -2.34177 25.7222
rtibia 80.0297
rfoot -15.571 -5.86274
rtoes -13.0358
lfemur -18.4053 -0.830893 -23.1622
ltibia 43.0519
lfoot -36.0953 15.6586
ltoes -19.2886
9
root 0.758287 15.7093 -42.778 24.5888 5.14837 -0.472467
lowerback -0.712618 -3.37815 0.599522
upperback -3.56723 -4.45574 2.35062
thorax -3.12658 -2.21229 2.16848
lowerneck -12.4009 -2.28311 -7.93088
upperneck 4.21464 -2.29242 6.58662
head 3.42892 -0.958932 3.15065
rclavicle 1.36789e-014 2.98177e-015
rhumerus -46.6538 1.69467 -84.3108
rradius 44.1864
rwrist 1.59755
rhand -27.8113 -46.0635
rfingers 7.12502
rthumb -1.20363 -76.0399
lclavicle 1.36789e-014 2.98177e-015
lhumerus -27.632 -23.7752 94.7819
lradius 58.2527
lwrist 13.9791
lhand -33.6141 -34.767
lfingers 7.12502
lthumb -6.8071 -4.89647
rfemur -70.1443 -2.21477 26.0674
rtibia 80.4539
rfoot -15.148 -5.574
rtoes -16.9591
lfemur -18.1121 -0.405805 -22.7854
ltibia 43.7442
lfoot -35.7648 14.4308
ltoes -20.9192
10
root 0.731276 15.6811 -42.6269 24.9951 5.06961 -0.464318
lowerback -0.737432 -3.34967 0.620649
upperback -3.5177 -4.41801 2.38588
thorax -3.06136 -2.19407 2.18832
lowerneck -13.8624 -2.4072 -7.87871
upperneck 4.55726 -2.34742 6.30768
head 3.76534 -0.976906 3.04605
rclavicle 4.30245e-014 -7.30534e-015
rhumerus -45.8959 1.79792 -84.4298
rradius 44.4598
rwrist 1.57917
rhand -27.9787 -47.8877
rfingers 7.12502
rthumb -1.36537 -77.863
lclavicle 4.30245e-014 -7.30534e-015
lhumerus -27.4838 -23.4264 94.4497
lradius 58.7084
lwrist 13.8989
lhand -34.5326 -36.1345
lfingers 7.12502
lthumb -7.69367 -6.2945
rfemur -69.8118 -1.90017 26.356
rtibia 80.755
rfoot -14.7968 -5.28357
rtoes -16.8638
lfemur -18.5572 0.338434 -22.4724
ltibia 44.5979
lfoot -34.8594 13.3702
ltoes -24.0858
11
root 0.714372 15.6615 -42.4395 24.8483 5.14258 -0.572134
lowerback -0.78984 -3.32292 0.886889
upperback -3.36983 -4.38226 2.39893
thorax -2.89903 -2.18393 2.04351
lowerneck -14.4447 -2.45293 -7.72193
upperneck 4.63095 -2.3641 5.93798
head 3.87383 -0.993494 2.90164
rclavicle -3.68994e-014 9.83984e-015
rhumerus -45.6384 1.95329 -84.5645
rradius 44.8166
rwrist 1.53666
rhand -27.2281 -49.7779
rfingers 7.12502
rthumb -0.640382 -79.7567
lclavicle -3.68994e-014 9.83984e-015
lhumerus -27.8613 -23.1187 94.4022
lradius 59.0202
lwrist 15.4151
lhand -35.5262 -40.3656
lfingers 7.12502
lthumb -8.65263 -10.5629
rfemur -68.3704 -1.87123 26.7906
rtibia 80.7987
rfoot -15.0797 -5.17491
rtoes -18.6745
lfemur -18.2239 1.39075 -21.9324
ltibia 45.5117
lfoot -33.8807 12.1832
ltoes -26.462
12
root 0.691409 15.6392 -42.2565 24.8498 5.33257 -0.597436
lowerback -1.11578 -3.39646 0.977087
upperback -3.84427 -4.47679 2.4481
thorax -3.20762 -2.23197 2.04545
lowerneck -11.9687 -2.21415 -7.7467
upperneck 3.81233 -2.18154 5.69416
head 3.21492 -0.947666 2.85321
rclavicle -1.74682e-014 1.799e-014
rhumerus -46.689 2.41853 -84.7835
rradius 45.3101
rwrist 1.47359
rhand -28.2805 -49.0798
rfingers 7.12502
rthumb -1.65683 -79.0531
lclavicle -1.74682e-014 1.799e-014
lhumerus -29.6266 -22.1648 94.6577
lradius 59.4576
lwrist 16.7351
lhand -35.6652 -42.6268
lfingers 7.12502
lthumb -8.78674 -12.8297
rfemur -67.0902 -1.83147 27.1485
rtibia 80.658
rfoot -16.2957 -5.41614
rtoes -19.689
lfemur -18.2578 1.79689 -21.3914
ltibia 46.7193
lfoot -32.857 10.5981
ltoes -28.1441
